<svg width="159" height="60" viewBox="0 0 159 60" fill="none" xmlns="http://www.w3.org/2000/svg">
<path d="M78 19.0889H98.6488V24.0444H83.5167V32.7778H96.5883V37.4444H83.5167V49.3111H78V19.0889Z" fill="black"/>
<path d="M102.548 18H107.91V49.3111H102.548V18Z" fill="black"/>
<path d="M135.87 37.4889C135.87 37.7852 135.862 38.0593 135.848 38.3111C135.833 38.5481 135.803 38.8815 135.759 39.3111H117.968C118.101 40.2444 118.36 41.0815 118.744 41.8222C119.128 42.5481 119.593 43.163 120.139 43.6667C120.701 44.1556 121.336 44.5333 122.045 44.8C122.754 45.0667 123.5 45.2 124.283 45.2C125.641 45.2 126.742 44.9333 127.584 44.4C128.426 43.8667 129.039 43.1111 129.423 42.1333H135.272C134.991 43.1556 134.526 44.1407 133.876 45.0889C133.241 46.037 132.458 46.8741 131.527 47.6C130.597 48.3259 129.526 48.9037 128.315 49.3333C127.118 49.7778 125.811 50 124.393 50C122.68 50 121.1 49.6815 119.652 49.0444C118.219 48.4074 116.979 47.5407 115.93 46.4444C114.881 45.3481 114.062 44.0667 113.471 42.6C112.88 41.1185 112.585 39.5481 112.585 37.8889C112.585 36.2148 112.88 34.6444 113.471 33.1778C114.062 31.7111 114.881 30.4296 115.93 29.3333C116.979 28.237 118.219 27.3704 119.652 26.7333C121.1 26.0963 122.68 25.7778 124.393 25.7778C126.107 25.7778 127.665 26.0963 129.068 26.7333C130.486 27.3556 131.697 28.2074 132.702 29.2889C133.706 30.3556 134.481 31.6 135.028 33.0222C135.589 34.4296 135.87 35.9185 135.87 37.4889ZM130.397 35.1556C130.338 34.5185 130.139 33.9185 129.799 33.3556C129.46 32.7778 129.016 32.2815 128.47 31.8667C127.938 31.437 127.318 31.0963 126.609 30.8444C125.9 30.5926 125.154 30.4667 124.371 30.4667C123.692 30.4667 123.027 30.563 122.377 30.7556C121.742 30.9333 121.151 31.2148 120.605 31.6C120.058 31.9852 119.571 32.4741 119.143 33.0667C118.729 33.6593 118.411 34.3556 118.19 35.1556H130.397Z" fill="black"/>
<path d="M143.979 37.5333L136.734 26.4667H143.026L147.701 33.9778H147.723L152.398 26.4667H158.668L151.445 37.5333L159 49.3111H152.641L147.656 41.2889L142.649 49.3111H136.446L143.979 37.5333Z" fill="black"/>
<path fill-rule="evenodd" clip-rule="evenodd" d="M20.5392 39.4236L20.5498 39.4235V59.9734H39.78C48.3735 59.8616 55.9453 54.0936 58.8081 46.2664C58.8178 46.2469 58.8231 46.2274 58.8285 46.2074C58.8349 46.1837 58.8415 46.1593 58.8559 46.1334C59.569 44.0475 59.9734 41.7861 59.9734 39.4395C59.9734 37.0876 59.5051 34.6825 58.7868 32.586C56.1323 25.0767 49.1892 19.5824 41.0944 18.9403V0H0V19.2302C0.111743 27.8237 5.87975 35.3902 13.707 38.2582C13.7283 38.2689 13.7509 38.2742 13.7735 38.2795C13.7961 38.2849 13.8187 38.2902 13.84 38.3008C15.9259 39.0192 18.1873 39.4236 20.5392 39.4236ZM41.0943 18.879C41.0943 30.2235 31.8943 39.4182 20.5498 39.4182V18.879H41.0943Z" fill="black"/>
</svg>
