<svg width="160" height="60" viewBox="0 0 160 60" fill="none" xmlns="http://www.w3.org/2000/svg">
<path d="M78 19.0889H98.7111V24.0444H83.5333V32.7778H96.6444V37.4444H83.5333V49.3111H78V19.0889Z" fill="white"/>
<path d="M102.622 18H108V49.3111H102.622V18Z" fill="white"/>
<path d="M136.044 37.4889C136.044 37.7852 136.037 38.0593 136.022 38.3111C136.007 38.5481 135.978 38.8815 135.933 39.3111H118.089C118.222 40.2444 118.481 41.0815 118.867 41.8222C119.252 42.5481 119.719 43.163 120.267 43.6667C120.83 44.1556 121.467 44.5333 122.178 44.8C122.889 45.0667 123.637 45.2 124.422 45.2C125.785 45.2 126.889 44.9333 127.733 44.4C128.578 43.8667 129.193 43.1111 129.578 42.1333H135.444C135.163 43.1556 134.696 44.1407 134.044 45.0889C133.407 46.037 132.622 46.8741 131.689 47.6C130.756 48.3259 129.681 48.9037 128.467 49.3333C127.267 49.7778 125.956 50 124.533 50C122.815 50 121.23 49.6815 119.778 49.0444C118.341 48.4074 117.096 47.5407 116.044 46.4444C114.993 45.3481 114.17 44.0667 113.578 42.6C112.985 41.1185 112.689 39.5481 112.689 37.8889C112.689 36.2148 112.985 34.6444 113.578 33.1778C114.17 31.7111 114.993 30.4296 116.044 29.3333C117.096 28.237 118.341 27.3704 119.778 26.7333C121.23 26.0963 122.815 25.7778 124.533 25.7778C126.252 25.7778 127.815 26.0963 129.222 26.7333C130.644 27.3556 131.859 28.2074 132.867 29.2889C133.874 30.3556 134.652 31.6 135.2 33.0222C135.763 34.4296 136.044 35.9185 136.044 37.4889ZM130.556 35.1556C130.496 34.5185 130.296 33.9185 129.956 33.3556C129.615 32.7778 129.17 32.2815 128.622 31.8667C128.089 31.437 127.467 31.0963 126.756 30.8444C126.044 30.5926 125.296 30.4667 124.511 30.4667C123.83 30.4667 123.163 30.563 122.511 30.7556C121.874 30.9333 121.281 31.2148 120.733 31.6C120.185 31.9852 119.696 32.4741 119.267 33.0667C118.852 33.6593 118.533 34.3556 118.311 35.1556H130.556Z" fill="white"/>
<path d="M144.178 37.5333L136.911 26.4667H143.222L147.911 33.9778H147.933L152.622 26.4667H158.911L151.667 37.5333L159.244 49.3111H152.867L147.867 41.2889L142.844 49.3111H136.622L144.178 37.5333Z" fill="white"/>
<path fill-rule="evenodd" clip-rule="evenodd" d="M20.5392 39.4236L20.5498 39.4235V59.9734H39.78C48.3735 59.8616 55.9453 54.0936 58.8081 46.2664C58.8178 46.2469 58.8231 46.2274 58.8285 46.2074C58.8349 46.1837 58.8415 46.1593 58.8559 46.1334C59.569 44.0475 59.9734 41.7861 59.9734 39.4395C59.9734 37.0876 59.5051 34.6825 58.7868 32.586C56.1323 25.0767 49.1892 19.5824 41.0944 18.9403V0H0V19.2302C0.111743 27.8237 5.87975 35.3902 13.707 38.2582C13.7283 38.2689 13.7509 38.2742 13.7735 38.2795C13.7961 38.2849 13.8187 38.2902 13.84 38.3008C15.9259 39.0192 18.1873 39.4236 20.5392 39.4236ZM41.0943 18.879C41.0943 30.2235 31.8943 39.4182 20.5498 39.4182V18.879H41.0943Z" fill="white"/>
</svg>
