<svg width="197" height="60" viewBox="0 0 197 60" fill="none" xmlns="http://www.w3.org/2000/svg">
<g id="flexfinance-logotype-white">
<g id="Logotype">
<g id="Flex">
<path d="M78.1448 5.77122H92.8136V9.28104H82.0638V15.4665H91.3499V18.7717H82.0638V27.1764H78.1448V5.77122Z" fill="white"/>
<path d="M95.5837 5H99.3926V27.1764H95.5837V5Z" fill="white"/>
<path d="M119.255 18.8032C119.255 19.0131 119.25 19.2072 119.24 19.3855C119.229 19.5534 119.208 19.7895 119.177 20.0938H106.538C106.633 20.7548 106.816 21.3477 107.089 21.8723C107.362 22.3865 107.692 22.8219 108.081 23.1787C108.479 23.5249 108.93 23.7925 109.434 23.9814C109.938 24.1702 110.468 24.2647 111.024 24.2647C111.989 24.2647 112.771 24.0758 113.369 23.6981C113.967 23.3203 114.402 22.7852 114.675 22.0927H118.83C118.631 22.8167 118.3 23.5144 117.839 24.186C117.388 24.8575 116.832 25.4504 116.17 25.9645C115.509 26.4786 114.749 26.8879 113.888 27.1921C113.038 27.5069 112.11 27.6643 111.102 27.6643C109.885 27.6643 108.763 27.4387 107.734 26.9875C106.717 26.5363 105.835 25.9225 105.09 25.1461C104.345 24.3696 103.763 23.462 103.343 22.4232C102.923 21.3739 102.714 20.2617 102.714 19.0865C102.714 17.9008 102.923 16.7886 103.343 15.7498C103.763 14.711 104.345 13.8034 105.09 13.0269C105.835 12.2505 106.717 11.6367 107.734 11.1855C108.763 10.7343 109.885 10.5087 111.102 10.5087C112.32 10.5087 113.427 10.7343 114.423 11.1855C115.431 11.6262 116.291 12.2295 117.005 12.9955C117.718 13.7509 118.269 14.6323 118.657 15.6396C119.056 16.6364 119.255 17.691 119.255 18.8032ZM115.368 17.1506C115.326 16.6994 115.184 16.2744 114.943 15.8757C114.701 15.4665 114.387 15.115 113.998 14.8212C113.621 14.5169 113.18 14.2756 112.676 14.0972C112.173 13.9188 111.643 13.8296 111.087 13.8296C110.604 13.8296 110.132 13.8978 109.67 14.0342C109.219 14.1602 108.799 14.3595 108.411 14.6323C108.023 14.9051 107.677 15.2514 107.372 15.6711C107.079 16.0908 106.853 16.584 106.696 17.1506H115.368Z" fill="white"/>
<path d="M125.016 18.8347L119.869 10.9966H124.339L127.66 16.3164H127.676L130.997 10.9966H135.451L130.32 18.8347L135.687 27.1764H131.17L127.629 21.4946L124.071 27.1764H119.665L125.016 18.8347Z" fill="white"/>
</g>
<g id="Finance">
<path d="M78 33.1699H91.8662V34.9012H79.8572V43.5262H90.3395V45.1473H79.8572V54.575H78V33.1699Z" fill="white"/>
<path d="M96.6508 34.9641C96.2311 34.9641 95.8901 34.8382 95.6278 34.5864C95.376 34.3241 95.2501 34.004 95.2501 33.6263C95.2501 33.259 95.376 32.9443 95.6278 32.6819C95.8901 32.4196 96.2311 32.2885 96.6508 32.2885C97.081 32.2885 97.4221 32.4196 97.6739 32.6819C97.9362 32.9443 98.0674 33.259 98.0674 33.6263C98.0674 34.004 97.9362 34.3241 97.6739 34.5864C97.4221 34.8382 97.081 34.9641 96.6508 34.9641ZM95.7537 38.6313H97.5637V54.575H95.7537V38.6313Z" fill="white"/>
<path d="M103.371 38.6313H105.118V42.2041C105.339 41.627 105.654 41.0971 106.063 40.6145C106.472 40.1213 106.944 39.6963 107.479 39.3396C108.025 38.9828 108.628 38.7048 109.289 38.5054C109.95 38.3061 110.643 38.2064 111.367 38.2064C113.465 38.2064 115.076 38.8412 116.199 40.1108C117.322 41.3699 117.883 43.2954 117.883 45.8871V54.575H116.057V45.9185C116.057 43.8515 115.606 42.3353 114.704 41.3699C113.812 40.4046 112.563 39.9219 110.958 39.9219C110.202 39.9219 109.478 40.0688 108.786 40.3626C108.093 40.6459 107.479 41.0552 106.944 41.5903C106.409 42.1149 105.979 42.7497 105.654 43.4947C105.339 44.2397 105.181 45.0686 105.181 45.9815V54.575H103.371V38.6313Z" fill="white"/>
<path d="M129.766 55C128.664 55 127.636 54.7849 126.681 54.3547C125.726 53.914 124.892 53.3159 124.179 52.5604C123.476 51.805 122.919 50.9183 122.51 49.9005C122.111 48.8827 121.912 47.7862 121.912 46.6111C121.912 45.4359 122.117 44.3394 122.526 43.3216C122.935 42.3038 123.491 41.4172 124.194 40.6617C124.908 39.9062 125.742 39.3134 126.697 38.8832C127.652 38.4425 128.675 38.2221 129.766 38.2221C130.542 38.2221 131.277 38.327 131.969 38.5369C132.672 38.7467 133.318 39.0458 133.905 39.434C134.493 39.8118 135.012 40.2734 135.463 40.8191C135.925 41.3647 136.298 41.9733 136.581 42.6448V38.6313H138.328V54.575H136.581V50.5931C136.298 51.2646 135.925 51.8732 135.463 52.4188C135.012 52.9644 134.493 53.4313 133.905 53.8196C133.318 54.1973 132.672 54.4859 131.969 54.6852C131.277 54.8951 130.542 55 129.766 55ZM130.128 53.2687C131.009 53.2687 131.838 53.1008 132.615 52.7651C133.391 52.4188 134.068 51.9466 134.645 51.3485C135.222 50.7504 135.679 50.0474 136.014 49.2395C136.35 48.4211 136.518 47.5397 136.518 46.5953C136.518 45.6615 136.35 44.7906 136.014 43.9826C135.679 43.1747 135.222 42.4717 134.645 41.8736C134.068 41.2755 133.391 40.8033 132.615 40.4571C131.838 40.1108 131.009 39.9377 130.128 39.9377C129.247 39.9377 128.412 40.1056 127.625 40.4413C126.849 40.7771 126.172 41.244 125.595 41.8421C125.018 42.4297 124.562 43.1327 124.226 43.9511C123.89 44.7591 123.722 45.6405 123.722 46.5953C123.722 47.5711 123.89 48.4683 124.226 49.2867C124.562 50.0946 125.018 50.7977 125.595 51.3957C126.183 51.9833 126.865 52.445 127.641 52.7808C128.418 53.1061 129.247 53.2687 130.128 53.2687Z" fill="white"/>
<path d="M144.136 38.6313H145.883V42.2041C146.103 41.627 146.418 41.0971 146.827 40.6145C147.236 40.1213 147.709 39.6963 148.244 39.3396C148.789 38.9828 149.393 38.7048 150.054 38.5054C150.715 38.3061 151.407 38.2064 152.131 38.2064C154.23 38.2064 155.84 38.8412 156.963 40.1108C158.086 41.3699 158.647 43.2954 158.647 45.8871V54.575H156.821V45.9185C156.821 43.8515 156.37 42.3353 155.468 41.3699C154.576 40.4046 153.327 39.9219 151.722 39.9219C150.967 39.9219 150.243 40.0688 149.55 40.3626C148.857 40.6459 148.244 41.0552 147.709 41.5903C147.173 42.1149 146.743 42.7497 146.418 43.4947C146.103 44.2397 145.946 45.0686 145.946 45.9815V54.575H144.136V38.6313Z" fill="white"/>
<path d="M170.719 55C169.607 55 168.558 54.7849 167.571 54.3547C166.595 53.914 165.746 53.3159 165.022 52.5604C164.298 51.7945 163.726 50.9026 163.306 49.8848C162.886 48.867 162.676 47.7758 162.676 46.6111C162.676 45.4464 162.886 44.3551 163.306 43.3373C163.726 42.309 164.298 41.4172 165.022 40.6617C165.746 39.8957 166.595 39.2976 167.571 38.8674C168.558 38.4267 169.607 38.2064 170.719 38.2064C171.611 38.2064 172.45 38.3375 173.237 38.5999C174.035 38.8517 174.754 39.2137 175.394 39.6858C176.034 40.1475 176.585 40.7036 177.046 41.3542C177.518 42.0047 177.88 42.7235 178.132 43.5105H176.259C176.028 42.9334 175.724 42.4245 175.346 41.9838C174.969 41.5431 174.538 41.1706 174.056 40.8663C173.573 40.562 173.048 40.3312 172.482 40.1738C171.926 40.0164 171.343 39.9377 170.735 39.9377C169.948 39.9377 169.177 40.0951 168.421 40.4098C167.676 40.7141 167.01 41.1548 166.422 41.7319C165.845 42.309 165.378 43.012 165.022 43.841C164.665 44.6594 164.486 45.5775 164.486 46.5953C164.486 47.6236 164.665 48.5522 165.022 49.3811C165.378 50.1996 165.845 50.9026 166.422 51.4902C167.01 52.0673 167.676 52.5132 168.421 52.828C169.177 53.1323 169.948 53.2844 170.735 53.2844C171.343 53.2844 171.926 53.2057 172.482 53.0484C173.048 52.891 173.568 52.6601 174.04 52.3558C174.523 52.0411 174.953 51.6581 175.331 51.2069C175.708 50.7452 176.018 50.2206 176.259 49.633H178.116C177.875 50.4409 177.518 51.1754 177.046 51.8364C176.574 52.4975 176.018 53.0641 175.378 53.5363C174.738 53.9979 174.019 54.3547 173.222 54.6065C172.435 54.8688 171.6 55 170.719 55Z" fill="white"/>
<path d="M196.374 46.1704C196.374 46.2753 196.374 46.3802 196.374 46.4851C196.374 46.5796 196.363 46.7212 196.342 46.9101H182.476C182.529 47.8859 182.733 48.7673 183.09 49.5543C183.447 50.3412 183.903 51.0128 184.459 51.5689C185.026 52.1145 185.666 52.5395 186.38 52.8437C187.093 53.1375 187.828 53.2844 188.583 53.2844C189.171 53.2844 189.727 53.2162 190.251 53.0798C190.786 52.9329 191.28 52.7231 191.731 52.4503C192.182 52.167 192.581 51.8207 192.927 51.4115C193.273 50.9918 193.557 50.5091 193.777 49.9635H195.807C195.555 50.698 195.199 51.3748 194.737 51.9938C194.275 52.6024 193.73 53.1323 193.1 53.5835C192.471 54.0242 191.773 54.3652 191.007 54.6065C190.251 54.8584 189.454 54.9843 188.614 54.9843C187.502 54.9843 186.463 54.7692 185.498 54.339C184.533 53.8983 183.688 53.3002 182.964 52.5447C182.251 51.7892 181.684 50.9026 181.264 49.8848C180.855 48.867 180.65 47.7758 180.65 46.6111C180.65 45.4464 180.855 44.3551 181.264 43.3373C181.684 42.309 182.251 41.4172 182.964 40.6617C183.688 39.8957 184.533 39.2976 185.498 38.8674C186.463 38.4267 187.502 38.2064 188.614 38.2064C189.716 38.2064 190.739 38.4215 191.684 38.8517C192.638 39.2819 193.462 39.8642 194.155 40.5987C194.847 41.3227 195.388 42.1674 195.776 43.1327C196.174 44.098 196.374 45.1106 196.374 46.1704ZM194.532 45.289C194.49 44.5755 194.307 43.8934 193.982 43.2429C193.656 42.5923 193.226 42.0257 192.691 41.5431C192.156 41.0499 191.531 40.6617 190.818 40.3784C190.115 40.0846 189.37 39.9377 188.583 39.9377C187.859 39.9377 187.161 40.0636 186.49 40.3154C185.818 40.5567 185.21 40.9135 184.664 41.3857C184.129 41.8474 183.672 42.4087 183.295 43.0698C182.927 43.7308 182.681 44.4705 182.555 45.289H194.532Z" fill="white"/>
</g>
</g>
<path id="Flex-Logo" fill-rule="evenodd" clip-rule="evenodd" d="M20.5392 39.4236L20.5498 39.4235V59.9734H39.78C48.3735 59.8616 55.9453 54.0936 58.8081 46.2664C58.8178 46.2469 58.8231 46.2274 58.8285 46.2074C58.8349 46.1837 58.8415 46.1593 58.8559 46.1334C59.569 44.0475 59.9734 41.7861 59.9734 39.4395C59.9734 37.0876 59.5051 34.6825 58.7868 32.586C56.1323 25.0767 49.1892 19.5824 41.0944 18.9403V0H0V19.2302C0.111743 27.8237 5.87975 35.3902 13.707 38.2582C13.7283 38.2689 13.7509 38.2742 13.7735 38.2795C13.7961 38.2849 13.8187 38.2902 13.84 38.3008C15.9259 39.0192 18.1873 39.4236 20.5392 39.4236ZM41.0943 18.879C41.0943 30.2235 31.8943 39.4182 20.5498 39.4182V18.879H41.0943Z" fill="white"/>
</g>
</svg>
