<svg width="100" height="100" viewBox="0 0 100 100" fill="none" xmlns="http://www.w3.org/2000/svg">
<path fill-rule="evenodd" clip-rule="evenodd" d="M34.2472 65.7351L34.2649 65.7351V100H66.3295C80.6583 99.8137 93.2836 90.1961 98.0569 77.1449C98.0732 77.1124 98.082 77.0798 98.091 77.0465C98.1017 77.007 98.1127 76.9663 98.1368 76.9231C99.3256 73.4451 99.9999 69.6744 99.9999 65.7617C99.9999 61.8401 99.2192 57.8298 98.0214 54.3341C93.5953 41.813 82.0184 32.6518 68.521 31.5811V0H0V32.0646C0.186321 46.3934 9.80392 59.0098 22.8551 63.792C22.8906 63.8098 22.9283 63.8186 22.966 63.8275C23.0037 63.8364 23.0414 63.8453 23.0769 63.863C26.5549 65.0608 30.3256 65.7351 34.2472 65.7351ZM68.5209 31.479C68.5209 50.3948 53.1807 65.7262 34.2649 65.7262V31.479H68.5209Z" fill="black"/>
</svg>
