<svg xmlns="http://www.w3.org/2000/svg" xmlns:xlink="http://www.w3.org/1999/xlink" width="379" zoomAndPan="magnify" viewBox="0 0 284.25 107.999999" height="144" preserveAspectRatio="xMidYMid meet" version="1.0"><defs><g/><clipPath id="0f6a7efab7"><path d="M 107.503906 0.140625 L 175.574219 0.140625 L 175.574219 61.480469 L 107.503906 61.480469 Z M 107.503906 0.140625 " clip-rule="nonzero"/></clipPath><clipPath id="4d543d1b4b"><path d="M 107.503906 16 L 135 16 L 135 37 L 107.503906 37 Z M 107.503906 16 " clip-rule="nonzero"/></clipPath><clipPath id="ba92c82548"><path d="M 139 41 L 166 41 L 166 61.480469 L 139 61.480469 Z M 139 41 " clip-rule="nonzero"/></clipPath></defs><g fill="#18171e" fill-opacity="1"><g transform="translate(58.458309, 91.512296)"><g><path d="M 10.78125 -19.734375 C 12.488281 -19.734375 13.972656 -19.453125 15.234375 -18.890625 C 16.503906 -18.328125 17.476562 -17.519531 18.15625 -16.46875 C 18.832031 -15.414062 19.171875 -14.164062 19.171875 -12.71875 C 19.171875 -11.289062 18.832031 -10.046875 18.15625 -8.984375 C 17.476562 -7.921875 16.503906 -7.109375 15.234375 -6.546875 C 13.972656 -5.984375 12.488281 -5.703125 10.78125 -5.703125 L 6.3125 -5.703125 L 6.3125 0 L 2.65625 0 L 2.65625 -19.734375 Z M 10.609375 -8.796875 C 12.203125 -8.796875 13.410156 -9.132812 14.234375 -9.8125 C 15.066406 -10.488281 15.484375 -11.457031 15.484375 -12.71875 C 15.484375 -13.976562 15.066406 -14.945312 14.234375 -15.625 C 13.410156 -16.300781 12.203125 -16.640625 10.609375 -16.640625 L 6.3125 -16.640625 L 6.3125 -8.796875 Z M 10.609375 -8.796875 "/></g></g></g><g fill="#18171e" fill-opacity="1"><g transform="translate(85.214374, 91.512296)"><g><path d="M 11.875 0.28125 C 9.863281 0.28125 8.046875 -0.15625 6.421875 -1.03125 C 4.804688 -1.90625 3.535156 -3.117188 2.609375 -4.671875 C 1.691406 -6.222656 1.234375 -7.957031 1.234375 -9.875 C 1.234375 -11.789062 1.691406 -13.523438 2.609375 -15.078125 C 3.535156 -16.628906 4.804688 -17.84375 6.421875 -18.71875 C 8.046875 -19.59375 9.863281 -20.03125 11.875 -20.03125 C 13.882812 -20.03125 15.695312 -19.59375 17.3125 -18.71875 C 18.925781 -17.84375 20.191406 -16.632812 21.109375 -15.09375 C 22.035156 -13.550781 22.5 -11.8125 22.5 -9.875 C 22.5 -7.9375 22.035156 -6.195312 21.109375 -4.65625 C 20.191406 -3.113281 18.925781 -1.90625 17.3125 -1.03125 C 15.695312 -0.15625 13.882812 0.28125 11.875 0.28125 Z M 11.875 -2.9375 C 13.1875 -2.9375 14.367188 -3.226562 15.421875 -3.8125 C 16.472656 -4.40625 17.300781 -5.234375 17.90625 -6.296875 C 18.507812 -7.359375 18.8125 -8.550781 18.8125 -9.875 C 18.8125 -11.1875 18.507812 -12.375 17.90625 -13.4375 C 17.300781 -14.5 16.472656 -15.328125 15.421875 -15.921875 C 14.367188 -16.515625 13.1875 -16.8125 11.875 -16.8125 C 10.5625 -16.8125 9.375 -16.515625 8.3125 -15.921875 C 7.257812 -15.328125 6.429688 -14.5 5.828125 -13.4375 C 5.234375 -12.375 4.9375 -11.1875 4.9375 -9.875 C 4.9375 -8.550781 5.234375 -7.359375 5.828125 -6.296875 C 6.429688 -5.234375 7.257812 -4.40625 8.3125 -3.8125 C 9.375 -3.226562 10.5625 -2.9375 11.875 -2.9375 Z M 11.875 -2.9375 "/></g></g></g><g fill="#18171e" fill-opacity="1"><g transform="translate(115.240622, 91.512296)"><g><path d="M 15.5625 0 L 11.53125 -5.78125 C 11.363281 -5.757812 11.113281 -5.75 10.78125 -5.75 L 6.3125 -5.75 L 6.3125 0 L 2.65625 0 L 2.65625 -19.734375 L 10.78125 -19.734375 C 12.488281 -19.734375 13.972656 -19.453125 15.234375 -18.890625 C 16.503906 -18.328125 17.476562 -17.519531 18.15625 -16.46875 C 18.832031 -15.414062 19.171875 -14.164062 19.171875 -12.71875 C 19.171875 -11.226562 18.804688 -9.945312 18.078125 -8.875 C 17.359375 -7.8125 16.320312 -7.015625 14.96875 -6.484375 L 19.515625 0 Z M 15.484375 -12.71875 C 15.484375 -13.976562 15.066406 -14.945312 14.234375 -15.625 C 13.410156 -16.300781 12.203125 -16.640625 10.609375 -16.640625 L 6.3125 -16.640625 L 6.3125 -8.765625 L 10.609375 -8.765625 C 12.203125 -8.765625 13.410156 -9.109375 14.234375 -9.796875 C 15.066406 -10.484375 15.484375 -11.457031 15.484375 -12.71875 Z M 15.484375 -12.71875 "/></g></g></g><g fill="#18171e" fill-opacity="1"><g transform="translate(142.137638, 91.512296)"><g><path d="M 6.65625 -16.640625 L 0.109375 -16.640625 L 0.109375 -19.734375 L 16.859375 -19.734375 L 16.859375 -16.640625 L 10.328125 -16.640625 L 10.328125 0 L 6.65625 0 Z M 6.65625 -16.640625 "/></g></g></g><g fill="#18171e" fill-opacity="1"><g transform="translate(165.397979, 91.512296)"><g><path d="M 6.3125 -16.671875 L 6.3125 -10.65625 L 15.84375 -10.65625 L 15.84375 -7.5625 L 6.3125 -7.5625 L 6.3125 0 L 2.65625 0 L 2.65625 -19.734375 L 17.0625 -19.734375 L 17.0625 -16.671875 Z M 6.3125 -16.671875 "/></g></g></g><g fill="#18171e" fill-opacity="1"><g transform="translate(189.645017, 91.512296)"><g><path d="M 2.65625 -19.734375 L 6.3125 -19.734375 L 6.3125 0 L 2.65625 0 Z M 2.65625 -19.734375 "/></g></g></g><g fill="#18171e" fill-opacity="1"><g transform="translate(204.927235, 91.512296)"><g><path d="M 15.09375 0 L 9.734375 -7.5 L 4.421875 0 L 0.25 0 L 7.59375 -10.0625 L 0.65625 -19.734375 L 4.796875 -19.734375 L 9.84375 -12.71875 L 14.828125 -19.734375 L 18.8125 -19.734375 L 11.90625 -10.203125 L 19.3125 0 Z M 15.09375 0 "/></g></g></g><g clip-path="url(#0f6a7efab7)"><path fill="#cdb263" d="M 175.128906 0.253906 L 152.75 4.742188 L 160.695312 8.503906 C 141.75 27.445312 127.230469 41.96875 107.582031 61.613281 L 120.210938 61.613281 C 120.738281 61.085938 169.738281 12.089844 167.007812 14.816406 L 170.769531 22.761719 Z M 175.128906 0.253906 " fill-opacity="1" fill-rule="nonzero"/></g><g clip-path="url(#4d543d1b4b)"><path fill="#18171e" d="M 120.363281 16.554688 L 134.007812 30.175781 L 127.667969 36.511719 L 107.734375 16.554688 Z M 120.363281 16.554688 " fill-opacity="1" fill-rule="nonzero"/></g><g clip-path="url(#ba92c82548)"><path fill="#18171e" d="M 165.445312 61.636719 L 152.796875 61.636719 L 139.066406 47.886719 L 145.382812 41.570312 Z M 165.445312 61.636719 " fill-opacity="1" fill-rule="nonzero"/></g></svg>