<svg xmlns="http://www.w3.org/2000/svg" xmlns:xlink="http://www.w3.org/1999/xlink" width="500" zoomAndPan="magnify" viewBox="0 0 375 374.999991" height="500" preserveAspectRatio="xMidYMid meet" version="1.0"><defs><clipPath id="828e80c088"><path d="M 153.449219 126 L 221.699219 126 L 221.699219 187.449219 L 153.449219 187.449219 Z M 153.449219 126 " clip-rule="nonzero"/></clipPath><clipPath id="5591c9bf15"><path d="M 153.449219 142 L 181 142 L 181 163 L 153.449219 163 Z M 153.449219 142 " clip-rule="nonzero"/></clipPath><clipPath id="e6cc06edf0"><path d="M 185 167 L 212 167 L 212 187.449219 L 185 187.449219 Z M 185 167 " clip-rule="nonzero"/></clipPath></defs><g clip-path="url(#828e80c088)"><path fill="#cdb263" d="M 221.25 126.0625 L 198.8125 130.5625 L 206.777344 134.332031 C 187.785156 153.328125 173.222656 167.886719 153.523438 187.585938 L 166.1875 187.585938 C 166.714844 187.054688 215.84375 137.929688 213.109375 140.664062 L 216.878906 148.628906 Z M 221.25 126.0625 " fill-opacity="1" fill-rule="nonzero"/></g><g clip-path="url(#5591c9bf15)"><path fill="#ffffff" d="M 166.339844 142.40625 L 180.019531 156.0625 L 173.664062 162.414062 L 153.679688 142.40625 Z M 166.339844 142.40625 " fill-opacity="1" fill-rule="nonzero"/></g><g clip-path="url(#e6cc06edf0)"><path fill="#ffffff" d="M 211.542969 187.609375 L 198.855469 187.609375 L 185.09375 173.820312 L 191.421875 167.488281 Z M 211.542969 187.609375 " fill-opacity="1" fill-rule="nonzero"/></g></svg>