<svg xmlns="http://www.w3.org/2000/svg" xmlns:xlink="http://www.w3.org/1999/xlink" width="500" zoomAndPan="magnify" viewBox="0 0 375 374.999991" height="500" preserveAspectRatio="xMidYMid meet" version="1.0"><defs><clipPath id="eb9e70e482"><path d="M 153.449219 123.703125 L 221.699219 123.703125 L 221.699219 185.203125 L 153.449219 185.203125 Z M 153.449219 123.703125 " clip-rule="nonzero"/></clipPath><clipPath id="da65548977"><path d="M 153.449219 140 L 181 140 L 181 161 L 153.449219 161 Z M 153.449219 140 " clip-rule="nonzero"/></clipPath><clipPath id="6fa9809a3a"><path d="M 185 165 L 212 165 L 212 185.203125 L 185 185.203125 Z M 185 165 " clip-rule="nonzero"/></clipPath></defs><g clip-path="url(#eb9e70e482)"><path fill="#cdb263" d="M 221.25 123.8125 L 198.8125 128.3125 L 206.777344 132.085938 C 187.785156 151.078125 173.222656 165.636719 153.523438 185.339844 L 166.1875 185.339844 C 166.714844 184.808594 215.84375 135.679688 213.109375 138.417969 L 216.878906 146.378906 Z M 221.25 123.8125 " fill-opacity="1" fill-rule="nonzero"/></g><g clip-path="url(#da65548977)"><path fill="#18171e" d="M 166.339844 140.160156 L 180.019531 153.8125 L 173.664062 160.167969 L 153.679688 140.160156 Z M 166.339844 140.160156 " fill-opacity="1" fill-rule="nonzero"/></g><g clip-path="url(#6fa9809a3a)"><path fill="#18171e" d="M 211.542969 185.359375 L 198.855469 185.359375 L 185.09375 171.574219 L 191.421875 165.242188 Z M 211.542969 185.359375 " fill-opacity="1" fill-rule="nonzero"/></g></svg>