<svg xmlns="http://www.w3.org/2000/svg" xmlns:xlink="http://www.w3.org/1999/xlink" width="343" zoomAndPan="magnify" viewBox="0 0 257.25 62.249996" height="83" preserveAspectRatio="xMidYMid meet" version="1.0"><defs><g/><clipPath id="13a9e77b69"><path d="M 1.160156 0 L 68.597656 0 L 68.597656 60.769531 L 1.160156 60.769531 Z M 1.160156 0 " clip-rule="nonzero"/></clipPath><clipPath id="902d7adf0d"><path d="M 1.160156 16 L 28 16 L 28 37 L 1.160156 37 Z M 1.160156 16 " clip-rule="nonzero"/></clipPath><clipPath id="072ff3ebf0"><path d="M 32 41 L 59 41 L 59 60.769531 L 32 60.769531 Z M 32 41 " clip-rule="nonzero"/></clipPath></defs><g fill="#ffffff" fill-opacity="1"><g transform="translate(73.250689, 42.53436)"><g><path d="M 10.671875 -19.5625 C 12.367188 -19.5625 13.84375 -19.28125 15.09375 -18.71875 C 16.351562 -18.15625 17.316406 -17.351562 17.984375 -16.3125 C 18.660156 -15.269531 19 -14.03125 19 -12.59375 C 19 -11.175781 18.660156 -9.941406 17.984375 -8.890625 C 17.316406 -7.835938 16.351562 -7.03125 15.09375 -6.46875 C 13.84375 -5.914062 12.367188 -5.640625 10.671875 -5.640625 L 6.265625 -5.640625 L 6.265625 0 L 2.625 0 L 2.625 -19.5625 Z M 10.5 -8.71875 C 12.082031 -8.71875 13.285156 -9.050781 14.109375 -9.71875 C 14.929688 -10.394531 15.34375 -11.351562 15.34375 -12.59375 C 15.34375 -13.84375 14.929688 -14.800781 14.109375 -15.46875 C 13.285156 -16.144531 12.082031 -16.484375 10.5 -16.484375 L 6.265625 -16.484375 L 6.265625 -8.71875 Z M 10.5 -8.71875 "/></g></g></g><g fill="#ffffff" fill-opacity="1"><g transform="translate(99.757984, 42.53436)"><g><path d="M 11.765625 0.28125 C 9.765625 0.28125 7.960938 -0.148438 6.359375 -1.015625 C 4.765625 -1.878906 3.507812 -3.078125 2.59375 -4.609375 C 1.6875 -6.148438 1.234375 -7.875 1.234375 -9.78125 C 1.234375 -11.675781 1.6875 -13.390625 2.59375 -14.921875 C 3.507812 -16.460938 4.765625 -17.664062 6.359375 -18.53125 C 7.960938 -19.394531 9.765625 -19.828125 11.765625 -19.828125 C 13.753906 -19.828125 15.550781 -19.394531 17.15625 -18.53125 C 18.757812 -17.664062 20.015625 -16.46875 20.921875 -14.9375 C 21.835938 -13.414062 22.296875 -11.695312 22.296875 -9.78125 C 22.296875 -7.863281 21.835938 -6.140625 20.921875 -4.609375 C 20.015625 -3.078125 18.757812 -1.878906 17.15625 -1.015625 C 15.550781 -0.148438 13.753906 0.28125 11.765625 0.28125 Z M 11.765625 -2.90625 C 13.066406 -2.90625 14.238281 -3.195312 15.28125 -3.78125 C 16.320312 -4.375 17.140625 -5.195312 17.734375 -6.25 C 18.335938 -7.300781 18.640625 -8.476562 18.640625 -9.78125 C 18.640625 -11.082031 18.335938 -12.257812 17.734375 -13.3125 C 17.140625 -14.363281 16.320312 -15.179688 15.28125 -15.765625 C 14.238281 -16.359375 13.066406 -16.65625 11.765625 -16.65625 C 10.460938 -16.65625 9.285156 -16.359375 8.234375 -15.765625 C 7.191406 -15.179688 6.375 -14.363281 5.78125 -13.3125 C 5.1875 -12.257812 4.890625 -11.082031 4.890625 -9.78125 C 4.890625 -8.476562 5.1875 -7.300781 5.78125 -6.25 C 6.375 -5.195312 7.191406 -4.375 8.234375 -3.78125 C 9.285156 -3.195312 10.460938 -2.90625 11.765625 -2.90625 Z M 11.765625 -2.90625 "/></g></g></g><g fill="#ffffff" fill-opacity="1"><g transform="translate(129.505057, 42.53436)"><g><path d="M 15.421875 0 L 11.421875 -5.734375 C 11.253906 -5.710938 11.003906 -5.703125 10.671875 -5.703125 L 6.265625 -5.703125 L 6.265625 0 L 2.625 0 L 2.625 -19.5625 L 10.671875 -19.5625 C 12.367188 -19.5625 13.84375 -19.28125 15.09375 -18.71875 C 16.351562 -18.15625 17.316406 -17.351562 17.984375 -16.3125 C 18.660156 -15.269531 19 -14.03125 19 -12.59375 C 19 -11.125 18.640625 -9.859375 17.921875 -8.796875 C 17.203125 -7.734375 16.171875 -6.941406 14.828125 -6.421875 L 19.328125 0 Z M 15.34375 -12.59375 C 15.34375 -13.84375 14.929688 -14.800781 14.109375 -15.46875 C 13.285156 -16.144531 12.082031 -16.484375 10.5 -16.484375 L 6.265625 -16.484375 L 6.265625 -8.6875 L 10.5 -8.6875 C 12.082031 -8.6875 13.285156 -9.023438 14.109375 -9.703125 C 14.929688 -10.390625 15.34375 -11.351562 15.34375 -12.59375 Z M 15.34375 -12.59375 "/></g></g></g><g fill="#ffffff" fill-opacity="1"><g transform="translate(156.151993, 42.53436)"><g><path d="M 6.59375 -16.484375 L 0.109375 -16.484375 L 0.109375 -19.5625 L 16.703125 -19.5625 L 16.703125 -16.484375 L 10.21875 -16.484375 L 10.21875 0 L 6.59375 0 Z M 6.59375 -16.484375 "/></g></g></g><g fill="#ffffff" fill-opacity="1"><g transform="translate(179.196065, 42.53436)"><g><path d="M 6.265625 -16.515625 L 6.265625 -10.5625 L 15.703125 -10.5625 L 15.703125 -7.484375 L 6.265625 -7.484375 L 6.265625 0 L 2.625 0 L 2.625 -19.5625 L 16.90625 -19.5625 L 16.90625 -16.515625 Z M 6.265625 -16.515625 "/></g></g></g><g fill="#ffffff" fill-opacity="1"><g transform="translate(203.217662, 42.53436)"><g><path d="M 2.625 -19.5625 L 6.265625 -19.5625 L 6.265625 0 L 2.625 0 Z M 2.625 -19.5625 "/></g></g></g><g fill="#ffffff" fill-opacity="1"><g transform="translate(218.35779, 42.53436)"><g><path d="M 14.953125 0 L 9.640625 -7.4375 L 4.390625 0 L 0.25 0 L 7.515625 -9.96875 L 0.640625 -19.5625 L 4.75 -19.5625 L 9.75 -12.59375 L 14.6875 -19.5625 L 18.640625 -19.5625 L 11.796875 -10.109375 L 19.140625 0 Z M 14.953125 0 "/></g></g></g><g clip-path="url(#13a9e77b69)"><path fill="#cdb263" d="M 68.152344 0.109375 L 45.984375 4.554688 L 53.855469 8.28125 C 35.085938 27.050781 20.703125 41.4375 1.238281 60.902344 L 13.75 60.902344 C 14.269531 60.378906 62.8125 11.835938 60.109375 14.539062 L 63.839844 22.40625 Z M 68.152344 0.109375 " fill-opacity="1" fill-rule="nonzero"/></g><g clip-path="url(#902d7adf0d)"><path fill="#ffffff" d="M 13.902344 16.261719 L 27.414062 29.753906 L 21.136719 36.03125 L 1.390625 16.261719 Z M 13.902344 16.261719 " fill-opacity="1" fill-rule="nonzero"/></g><g clip-path="url(#072ff3ebf0)"><path fill="#ffffff" d="M 58.5625 60.921875 L 46.03125 60.921875 L 32.429688 47.300781 L 38.683594 41.042969 Z M 58.5625 60.921875 " fill-opacity="1" fill-rule="nonzero"/></g></svg>