<svg width="200" height="200" viewBox="0 0 200 200" fill="none" xmlns="http://www.w3.org/2000/svg">
  <!-- 背景光晕效果 -->
  <circle cx="100" cy="100" r="80" fill="url(#glowGradient)" filter="blur(20px)" opacity="0.3"/>
  
  <!-- 外圈旋转环 -->
  <g opacity="0.8">
    <circle cx="100" cy="100" r="85" stroke="url(#rotatingGradient)" stroke-width="2" stroke-dasharray="10 5">
      <animateTransform
        attributeName="transform"
        type="rotate"
        from="0 100 100"
        to="360 100 100"
        dur="20s"
        repeatCount="indefinite"
      />
    </circle>
    <circle cx="100" cy="100" r="75" stroke="url(#rotatingGradient2)" stroke-width="1" stroke-dasharray="5 3">
      <animateTransform
        attributeName="transform"
        type="rotate"
        from="360 100 100"
        to="0 100 100"
        dur="15s"
        repeatCount="indefinite"
      />
    </circle>
  </g>

  <!-- 钱包主体 -->
  <g filter="url(#neonGlow)">
    <!-- 钱包背景 -->
    <path d="M50 80C50 71.7157 56.7157 65 65 65H135C143.284 65 150 71.7157 150 80V130C150 138.284 143.284 145 135 145H65C56.7157 145 50 138.284 50 130V80Z" 
      fill="url(#walletGradient)"
    />
    
    <!-- 钱包侧边扩展 -->
    <path d="M150 95H160C167.732 95 174 101.268 174 109V111C174 118.732 167.732 125 160 125H150V95Z"
      fill="url(#sideGradient)"
    />
    
    <!-- 发光圆点 -->
    <circle cx="162" cy="110" r="4" fill="url(#glowingDot)">
      <animate
        attributeName="opacity"
        values="0.5;1;0.5"
        dur="2s"
        repeatCount="indefinite"
      />
    </circle>
  </g>

  <!-- 钱包内部纹理 -->
  <path d="M65 85H120" stroke="rgba(255,255,255,0.3)" stroke-width="2"/>
  <path d="M65 100H110" stroke="rgba(255,255,255,0.2)" stroke-width="2"/>
  
  <!-- 渐变定义 -->
  <defs>
    <linearGradient id="walletGradient" x1="50" y1="65" x2="150" y2="145">
      <stop offset="0%" stop-color="#4F46E5"/>
      <stop offset="100%" stop-color="#06B6D4"/>
    </linearGradient>
    
    <linearGradient id="sideGradient" x1="150" y1="95" x2="174" y2="125">
      <stop offset="0%" stop-color="#4F46E5"/>
      <stop offset="100%" stop-color="#06B6D4"/>
    </linearGradient>
    
    <linearGradient id="rotatingGradient" x1="0" y1="0" x2="200" y2="200">
      <stop offset="0%" stop-color="#4F46E5">
        <animate
          attributeName="stop-color"
          values="#4F46E5;#06B6D4;#4F46E5"
          dur="4s"
          repeatCount="indefinite"
        />
      </stop>
      <stop offset="100%" stop-color="#06B6D4">
        <animate
          attributeName="stop-color"
          values="#06B6D4;#4F46E5;#06B6D4"
          dur="4s"
          repeatCount="indefinite"
        />
      </stop>
    </linearGradient>
    
    <linearGradient id="rotatingGradient2" x1="200" y1="0" x2="0" y2="200">
      <stop offset="0%" stop-color="#4F46E5"/>
      <stop offset="100%" stop-color="#06B6D4"/>
    </linearGradient>
    
    <radialGradient id="glowGradient" cx="50%" cy="50%" r="50%">
      <stop offset="0%" stop-color="#4F46E5"/>
      <stop offset="100%" stop-color="#06B6D4" stop-opacity="0"/>
    </radialGradient>
    
    <radialGradient id="glowingDot" cx="50%" cy="50%" r="50%">
      <stop offset="0%" stop-color="#ffffff"/>
      <stop offset="100%" stop-color="#4F46E5"/>
    </radialGradient>
    
    <!-- 霓虹发光效果 -->
    <filter id="neonGlow" x="-10" y="-10" width="220" height="220">
      <feGaussianBlur in="SourceAlpha" stdDeviation="2" result="blur"/>
      <feFlood flood-color="#4F46E5" flood-opacity="0.5" result="color"/>
      <feComposite in="color" in2="blur" operator="in" result="glow"/>
      <feMerge>
        <feMergeNode in="glow"/>
        <feMergeNode in="SourceGraphic"/>
      </feMerge>
    </filter>
  </defs>
</svg> 